<svg xmlns="http://www.w3.org/2000/svg" xmlns:ev="http://www.w3.org/2001/xml-events" xmlns:xlink="http://www.w3.org/1999/xlink" style="enable-background:new 0 0 422.5 318.6" id="Layer_1" x="0" y="0" version="1.1" viewBox="0 0 422.5 318.6" xml:space="preserve"><style type="text/css">.st0{fill:#f6851b;stroke:#f6851b;stroke-linecap:round;stroke-linejoin:round}.st1{font-family:&apos;Roboto-Regular&apos;}.st2{font-size:12px}.st10,.st11{stroke-linecap:round;stroke-linejoin:round}.st3{fill:#e2761b;stroke:#e2761b}.st3,.st4,.st5,.st6,.st7,.st8,.st9{stroke-linecap:round;stroke-linejoin:round}.st4{fill:#cd6116;stroke:#cd6116}.st5{fill:#161616;stroke:#161616}.st6{fill:#763d16;stroke:#763d16}.st7{fill:#d7c1b3;stroke:#d7c1b3}.st8{fill:#c0ad9e;stroke:#c0ad9e}.st9{fill:#e4761b;stroke:#e4761b}.st10{fill:#233447;stroke:#233447}.st11{fill:#e4751f;stroke:#e4751f}</style><g><rect width="25.5" height="25.5" x="313" y="38.1" class="st0"/><text class="st1 st2" transform="matrix(1 0 0 1 350.6757 54.3657)">#F6851B</text></g><g><rect width="25.5" height="25.5" x="313" y="74.7" class="st3"/><text class="st1 st2" transform="matrix(1 0 0 1 350.6757 90.9328)">#E2761B</text></g><g><rect width="25.5" height="25.5" x="313" y="111.3" class="st4"/><text class="st1 st2" transform="matrix(1 0 0 1 350.6757 127.5)">#CD6116</text></g><g><rect width="25.5" height="25.5" x="313" y="147.8" class="st5"/><text class="st1 st2" transform="matrix(1 0 0 1 350.6757 164.067)">#161616</text></g><g><rect width="25.5" height="25.5" x="313" y="184.4" class="st6"/><text class="st1 st2" transform="matrix(1 0 0 1 350.6757 200.6343)">#763D16</text></g><g><rect width="25.5" height="25.5" x="313" y="221" class="st7"/><text class="st1 st2" transform="matrix(1 0 0 1 350.6757 237.2017)">#D7C1B3</text></g><g><rect width="25.5" height="25.5" x="313" y="257.5" class="st8"/><text class="st1 st2" transform="matrix(1 0 0 1 350.6757 273.7686)">#C0AD9E</text></g><polygon points="273.6 40.5 174 114.4 192.5 70.8" class="st3"/><g><polygon points="43.9 40.5 142.6 115.1 125 70.8" class="st9"/><polygon points="237.8 211.8 211.3 252.4 268 268 284.2 212.7" class="st9"/><polygon points="33.4 212.7 49.5 268 106.2 252.4 79.8 211.8" class="st9"/><polygon points="103.1 143.2 87.3 167.1 143.5 169.6 141.6 109.1" class="st9"/><polygon points="214.4 143.2 175.3 108.4 174 169.6 230.2 167.1" class="st9"/><polygon points="106.2 252.4 140.1 235.9 110.9 213.1" class="st9"/><polygon points="177.4 235.9 211.3 252.4 206.6 213.1" class="st9"/></g><g><polygon points="211.3 252.4 177.4 235.9 180.1 258 179.8 267.3" class="st7"/><polygon points="106.2 252.4 137.7 267.3 137.5 258 140.1 235.9" class="st7"/></g><polygon points="138.3 198.5 110.1 190.2 130 181.1" class="st10"/><polygon points="179.2 198.5 187.5 181.1 207.5 190.2" class="st10"/><g><polygon points="106.2 252.4 111.1 211.8 79.8 212.7" class="st4"/><polygon points="206.4 211.8 211.3 252.4 237.8 212.7" class="st4"/><polygon points="230.2 167.1 174 169.6 179.2 198.5 187.5 181.1 207.5 190.2" class="st4"/><polygon points="110.1 190.2 130 181.1 138.3 198.5 143.5 169.6 87.3 167.1" class="st4"/></g><g><polygon points="87.3 167.1 110.9 213.1 110.1 190.2" class="st11"/><polygon points="207.5 190.2 206.6 213.1 230.2 167.1" class="st11"/><polygon points="143.5 169.6 138.3 198.5 144.9 232.6 146.3 187.7" class="st11"/><polygon points="174 169.6 171.3 187.6 172.6 232.6 179.2 198.5" class="st11"/></g><polygon points="179.2 198.5 172.6 232.6 177.4 235.9 206.6 213.1 207.5 190.2" class="st0"/><polygon points="110.1 190.2 110.9 213.1 140.1 235.9 144.9 232.6 138.3 198.5" class="st0"/><polygon points="179.8 267.3 180.1 258 177.6 255.8 139.9 255.8 137.5 258 137.7 267.3 106.2 252.4 117.2 261.4 139.6 276.9 177.9 276.9 200.3 261.4 211.3 252.4" class="st8"/><polygon points="177.4 235.9 172.6 232.6 144.9 232.6 140.1 235.9 137.5 258 139.9 255.8 177.6 255.8 180.1 258" class="st5"/><g><polygon points="277.8 119.2 286.2 78.4 273.6 40.5 177.4 111.9 214.4 143.2 266.7 158.5 278.2 145 273.2 141.4 281.2 134.1 275.1 129.3 283.1 123.2" class="st6"/><polygon points="31.3 78.4 39.8 119.2 34.4 123.2 42.4 129.3 36.3 134.1 44.3 141.4 39.3 145 50.8 158.5 103.1 143.2 140.1 111.9 43.9 40.5" class="st6"/></g><polygon points="266.7 158.5 214.4 143.2 230.2 167.1 206.6 213.1 237.8 212.7 284.2 212.7" class="st0"/><polygon points="103.1 143.2 50.8 158.5 33.4 212.7 79.8 212.7 110.9 213.1 87.3 167.1" class="st0"/><polygon points="174 169.6 177.4 111.9 192.5 70.8 125 70.8 140.1 111.9 143.5 169.6 144.8 187.8 144.9 232.6 172.6 232.6 172.7 187.8" class="st0"/></svg>